<svg width="120" height="84" viewBox="0 0 120 84" fill="none" xmlns="http://www.w3.org/2000/svg">
<path d="M1.8847 68.9635C1.8847 66.5067 2.68512 64.4621 4.28597 62.8295C5.90267 61.197 7.94732 60.3807 10.4199 60.3807C12.9718 60.3807 15.0164 61.1177 16.5539 62.5918L15.3651 64.3511C14.747 63.7964 13.9941 63.3526 13.1065 63.0197C12.2347 62.6869 11.3709 62.5205 10.515 62.5205C8.61302 62.5205 7.09935 63.1307 5.974 64.3511C4.8645 65.5716 4.30975 67.1011 4.30975 68.9397C4.30975 70.7942 4.88035 72.3633 6.02155 73.6472C7.16275 74.931 8.67642 75.5729 10.5626 75.5729C11.4977 75.5729 12.417 75.3827 13.3205 75.0023C14.2398 74.6061 15.0402 74.0672 15.7217 73.3856L16.9818 75.0737C15.2066 76.8489 13.0431 77.7365 10.4912 77.7365C7.9394 77.7365 5.86305 76.9043 4.2622 75.2401C2.6772 73.56 1.8847 71.4678 1.8847 68.9635ZM18.5042 71.4123C18.5042 69.6213 19.1302 68.1314 20.3824 66.9426C21.6345 65.738 23.1641 65.1357 24.971 65.1357C26.7937 65.1357 28.3312 65.7301 29.5833 66.9188C30.8355 68.1076 31.4615 69.6054 31.4615 71.4123C31.4615 73.2192 30.8355 74.725 29.5833 75.9296C28.3312 77.1342 26.8016 77.7365 24.9947 77.7365C23.1878 77.7365 21.6504 77.1342 20.3824 75.9296C19.1302 74.725 18.5042 73.2192 18.5042 71.4123ZM20.8579 71.4123C20.8579 72.6645 21.2541 73.7026 22.0466 74.5268C22.855 75.3352 23.8377 75.7394 24.9947 75.7394C26.1359 75.7394 27.1107 75.3273 27.9191 74.5031C28.7274 73.6789 29.1316 72.6486 29.1316 71.4123C29.1316 70.176 28.7274 69.1537 27.9191 68.3453C27.1107 67.537 26.1359 67.1328 24.9947 67.1328C23.8377 67.1328 22.855 67.537 22.0466 68.3453C21.2541 69.1537 20.8579 70.176 20.8579 71.4123ZM34.241 77.4512V65.421H36.4758V67.0615L36.4045 67.9649H36.4521C36.7532 67.2834 37.2921 66.6415 38.0688 66.0392C38.8613 65.4369 39.844 65.1357 41.0169 65.1357C43.7589 65.1357 45.1299 66.6732 45.1299 69.7481V77.4512H42.8238V70.2711C42.8238 69.3043 42.6653 68.5593 42.3483 68.0363C42.0471 67.5132 41.4527 67.2517 40.5651 67.2517C39.4081 67.2517 38.4492 67.6796 37.6884 68.5355C36.9276 69.3756 36.5472 70.4217 36.5472 71.6738V77.4512H34.241ZM49.0656 73.0528V67.4181H47.4965V65.5399H49.1132V62.1163H51.3718V65.5399H54.2724V67.4181H51.3718V72.7913C51.3718 73.2509 51.4352 73.6551 51.562 74.0038C51.6888 74.3366 51.8394 74.5982 52.0137 74.7884C52.2039 74.9786 52.4179 75.1291 52.6557 75.2401C52.9093 75.351 53.1312 75.4224 53.3214 75.4541C53.5274 75.4858 53.7335 75.5016 53.9395 75.5016C54.1456 75.5016 54.3278 75.4858 54.4863 75.4541V77.4987C54.1059 77.5463 53.8365 77.57 53.678 77.57C53.3134 77.57 52.9489 77.5383 52.5843 77.4749C52.2356 77.4274 51.8394 77.3164 51.3956 77.1421C50.9518 76.9519 50.5635 76.7062 50.2306 76.4051C49.9136 76.0881 49.6362 75.6443 49.3985 75.0737C49.1766 74.4872 49.0656 73.8136 49.0656 73.0528ZM55.8566 74.1702C55.8566 73.2826 56.1022 72.5377 56.5936 71.9354C57.0849 71.3331 57.7348 70.9051 58.5431 70.6515C59.3673 70.3821 60.1281 70.1998 60.8255 70.1047C61.5229 70.0096 62.26 69.962 63.0366 69.962H63.6548V69.7243C63.6548 67.9649 62.7751 67.0853 61.0157 67.0853C59.8587 67.0853 58.7333 67.4736 57.6397 68.2502L56.7125 66.5622C57.2038 66.1501 57.8695 65.8093 58.7096 65.5399C59.5496 65.2704 60.3817 65.1357 61.2059 65.1357C62.7275 65.1357 63.9004 65.5399 64.7246 66.3482C65.5488 67.1566 65.9609 68.3216 65.9609 69.8432V77.4512H63.7974V76.2386L63.8687 75.2876H63.8212C63.4566 76.0009 62.9177 76.5873 62.2045 77.047C61.5071 77.5066 60.7304 77.7365 59.8745 77.7365C58.7809 77.7365 57.8378 77.4115 57.0453 76.7617C56.2528 76.1118 55.8566 75.248 55.8566 74.1702ZM58.1627 73.98C58.1627 74.5031 58.3609 74.9548 58.7571 75.3352C59.1534 75.7156 59.7081 75.9058 60.4214 75.9058C61.3724 75.9058 62.149 75.5095 62.7513 74.717C63.3536 73.9245 63.6548 73.0449 63.6548 72.078V71.6263H63.0604C59.7953 71.6263 58.1627 72.4109 58.1627 73.98ZM68.6081 71.4361C68.6081 69.645 69.2104 68.1472 70.415 66.9426C71.6355 65.738 73.1809 65.1357 75.0512 65.1357C76.9532 65.1357 78.4589 65.7222 79.5684 66.8951L78.4748 68.5118C77.5555 67.5925 76.446 67.1328 75.1463 67.1328C73.9417 67.1328 72.9431 67.5449 72.1506 68.3691C71.3581 69.1775 70.9619 70.1919 70.9619 71.4123C70.9619 72.6486 71.3581 73.6789 72.1506 74.5031C72.959 75.3273 73.9813 75.7394 75.2176 75.7394C75.8833 75.7394 76.549 75.5967 77.2147 75.3114C77.8962 75.0103 78.4668 74.614 78.9265 74.1227L79.8537 75.8107C79.299 76.3971 78.5936 76.8647 77.7377 77.2134C76.8818 77.5621 75.9863 77.7365 75.0512 77.7365C73.165 77.7365 71.6196 77.1421 70.415 75.9533C69.2104 74.7646 68.6081 73.2588 68.6081 71.4361ZM82.8475 73.0528V67.4181H81.2784V65.5399H82.8951V62.1163H85.1537V65.5399H88.0542V67.4181H85.1537V72.7913C85.1537 73.2509 85.2171 73.6551 85.3439 74.0038C85.4707 74.3366 85.6213 74.5982 85.7956 74.7884C85.9858 74.9786 86.1998 75.1291 86.4375 75.2401C86.6911 75.351 86.913 75.4224 87.1032 75.4541C87.3093 75.4858 87.5153 75.5016 87.7214 75.5016C87.9274 75.5016 88.1097 75.4858 88.2682 75.4541V77.4987C87.8878 77.5463 87.6184 77.57 87.4599 77.57C87.0953 77.57 86.7308 77.5383 86.3662 77.4749C86.0175 77.4274 85.6213 77.3164 85.1775 77.1421C84.7337 76.9519 84.3453 76.7062 84.0125 76.4051C83.6955 76.0881 83.4181 75.6443 83.1804 75.0737C82.9585 74.4872 82.8475 73.8136 82.8475 73.0528ZM96.4381 73.1241V65.421H98.7443V72.6011C98.7443 73.5521 98.9028 74.2891 99.2198 74.8121C99.5368 75.3352 100.131 75.5967 101.003 75.5967C102.192 75.5967 103.143 75.1529 103.856 74.2653C104.569 73.3777 104.926 72.3078 104.926 71.0557V65.421H107.208V77.4512H104.973V75.7869L105.068 74.9072H105.021C104.704 75.6205 104.149 76.2703 103.357 76.8568C102.564 77.4432 101.629 77.7365 100.551 77.7365C97.8091 77.7365 96.4381 76.199 96.4381 73.1241ZM109.744 75.9771L110.838 74.408C111.805 75.3431 112.986 75.8107 114.381 75.8107C114.999 75.8107 115.49 75.676 115.855 75.4065C116.235 75.1212 116.425 74.7329 116.425 74.2415C116.425 73.8294 116.211 73.4728 115.783 73.1717C115.355 72.8705 114.84 72.609 114.238 72.3871C113.636 72.1652 113.033 71.9195 112.431 71.6501C111.829 71.3806 111.314 70.9923 110.886 70.4851C110.458 69.962 110.244 69.336 110.244 68.6069C110.244 67.5132 110.656 66.6652 111.48 66.0629C112.304 65.4448 113.334 65.1357 114.571 65.1357C116.187 65.1357 117.487 65.5795 118.47 66.4671L117.543 68.1314C117.194 67.7985 116.734 67.537 116.164 67.3468C115.609 67.1566 115.054 67.0615 114.499 67.0615C113.881 67.0615 113.382 67.1883 113.002 67.4419C112.637 67.6955 112.455 68.068 112.455 68.5593C112.455 68.9873 112.669 69.3518 113.097 69.653C113.525 69.9541 114.04 70.2156 114.642 70.4375C115.244 70.6436 115.847 70.8813 116.449 71.1508C117.067 71.4202 117.59 71.8165 118.018 72.3395C118.446 72.8467 118.66 73.4649 118.66 74.194C118.66 75.2242 118.256 76.0722 117.448 76.7379C116.639 77.4036 115.601 77.7365 114.333 77.7365C112.431 77.7365 110.902 77.15 109.744 75.9771Z" fill="white"/>
<rect x="32.2315" y="1.78304" width="59.7677" height="39.9552" rx="4.1276" stroke="white" stroke-width="1.65104"/>
<path d="M40.3211 12.3496L61.7526 26.6373C61.9724 26.7838 62.2583 26.7853 62.4796 26.641L84.4039 12.3496" stroke="white" stroke-width="1.65104" stroke-linecap="round"/>
<line x1="39.2019" y1="33.1549" x2="50.071" y2="25.522" stroke="white" stroke-width="1.65104" stroke-linecap="round"/>
<line x1="0.825521" y1="-0.825521" x2="14.1071" y2="-0.825521" transform="matrix(-0.818364 -0.574701 -0.574701 0.818364 84.5719 34.3049)" stroke="white" stroke-width="1.65104" stroke-linecap="round"/>
</svg>
